<svg width="41" height="40" viewBox="0 0 41 40" fill="none" xmlns="http://www.w3.org/2000/svg">
<g clip-path="url(#clip0_130_600)">
<path d="M11.3333 19.974C12.9246 19.974 14.4508 19.2379 15.576 17.9276C16.7012 16.6173 17.3333 14.8401 17.3333 12.987C17.3333 11.1339 16.7012 9.35677 15.576 8.04645C14.4508 6.73613 12.9246 6 11.3333 6H2.33334V33.9481H11.3333C12.9246 33.9481 14.4508 33.212 15.576 31.9016C16.7012 30.5913 17.3333 28.8141 17.3333 26.9611C17.3333 25.108 16.7012 23.3308 15.576 22.0205C14.4508 20.7102 12.9246 19.974 11.3333 19.974ZM11.3333 19.974H2.33334M24.3333 22.303H38.3333C38.3333 20.1411 37.5958 18.0678 36.2831 16.539C34.9703 15.0103 33.1899 14.1515 31.3333 14.1515C29.4768 14.1515 27.6963 15.0103 26.3836 16.539C25.0708 18.0678 24.3333 20.1411 24.3333 22.303ZM24.3333 22.303V26.9611C24.5396 28.7047 25.225 30.3238 26.2871 31.5761C27.3491 32.8285 28.7307 33.647 30.2254 33.9091C31.72 34.1712 33.2473 33.8629 34.579 33.0304C35.9107 32.1978 36.9752 30.8856 37.6133 29.2901M28.3333 6H34.3333" stroke="#F9FAFD" stroke-width="4" stroke-linecap="round" stroke-linejoin="round"/>
</g>
<defs>
<clipPath id="clip0_130_600">
<rect width="40" height="40" fill="white" transform="translate(0.333336)"/>
</clipPath>
</defs>
</svg>
