<svg width="40" height="40" viewBox="0 0 40 40" fill="none" xmlns="http://www.w3.org/2000/svg">
<path d="M11 19.974C12.5913 19.974 14.1174 19.2379 15.2426 17.9276C16.3679 16.6173 17 14.8401 17 12.987C17 11.1339 16.3679 9.35677 15.2426 8.04645C14.1174 6.73613 12.5913 6 11 6H2V33.9481H11C12.5913 33.9481 14.1174 33.212 15.2426 31.9016C16.3679 30.5913 17 28.8141 17 26.9611C17 25.108 16.3679 23.3308 15.2426 22.0205C14.1174 20.7102 12.5913 19.974 11 19.974ZM11 19.974H2M24 22.303H38C38 20.1411 37.2625 18.0678 35.9497 16.539C34.637 15.0103 32.8565 14.1515 31 14.1515C29.1435 14.1515 27.363 15.0103 26.0503 16.539C24.7375 18.0678 24 20.1411 24 22.303ZM24 22.303V26.9611C24.2063 28.7047 24.8917 30.3238 25.9538 31.5761C27.0158 32.8285 28.3974 33.647 29.892 33.9091C31.3867 34.1712 32.914 33.8629 34.2457 33.0304C35.5774 32.1978 36.6418 30.8856 37.28 29.2901M28 6H34" stroke="#003D50" stroke-width="4" stroke-linecap="round" stroke-linejoin="round"/>
</svg>
