<svg width="41" height="40" viewBox="0 0 41 40" fill="none" xmlns="http://www.w3.org/2000/svg">
<path d="M27.3333 13.3333C29.9855 13.3333 32.529 14.3869 34.4044 16.2623C36.2798 18.1376 37.3333 20.6812 37.3333 23.3333V35H30.6667V23.3333C30.6667 22.4493 30.3155 21.6014 29.6904 20.9763C29.0652 20.3512 28.2174 20 27.3333 20C26.4493 20 25.6014 20.3512 24.9763 20.9763C24.3512 21.6014 24 22.4493 24 23.3333V35H17.3333V23.3333C17.3333 20.6812 18.3869 18.1376 20.2623 16.2623C22.1376 14.3869 24.6812 13.3333 27.3333 13.3333Z" stroke="#F9FAFD" stroke-width="3.5" stroke-linecap="round" stroke-linejoin="round"/>
<path d="M10.6667 15H4V35H10.6667V15Z" stroke="#F9FAFD" stroke-width="3.5" stroke-linecap="round" stroke-linejoin="round"/>
<path d="M7.33333 10C9.17428 10 10.6667 8.50762 10.6667 6.66667C10.6667 4.82572 9.17428 3.33333 7.33333 3.33333C5.49238 3.33333 4 4.82572 4 6.66667C4 8.50762 5.49238 10 7.33333 10Z" stroke="#F9FAFD" stroke-width="3.5" stroke-linecap="round" stroke-linejoin="round"/>
</svg>
